<?xml version="1.0" encoding="utf-8"?>
<!-- Generator: Adobe Illustrator 19.2.1, SVG Export Plug-In . SVG Version: 6.00 Build 0)  -->
<svg version="1.1" id="Layer_1" xmlns="http://www.w3.org/2000/svg" xmlns:xlink="http://www.w3.org/1999/xlink" x="0px" y="0px"
	 viewBox="0 0 512 512" enable-background="new 0 0 512 512" xml:space="preserve">
<path fill="#585858" d="M457.9,91.1c0-0.8,0-1.7,0-2.5c-0.1-5.9-0.8-11.9-2-17.7c-5.4-25-20.2-41.4-45.7-46.4
	c-10.3-2-21.2-2.4-31.8-2.4c-82.8-0.2-165.7-0.1-248.5,0c-7.6,0-15.4,0.1-22.9,1.3c-33,5-53.5,27.2-54,62.7c0,0.6,0,1.1,0,1.7
	c0,56.6,0,113.2,0,169.8h0v0.4c0,34.6,0,69.3,0.1,103.9c0,5.3,0.5,10.7,1.5,15.8c6.8,31.9,34.9,51.6,67.3,47.2
	c6.1-0.8,12.1-2.4,17.9-4.2c3.4-1.1,6.5-3.7,5.8-7.8c-0.8-4.3-4.7-3.8-8.1-3.9c-10.6-0.6-21.4-0.5-31.8-2.2
	c-18.1-3-30.1-13.6-33.8-32.1c-1.5-7.5-2.7-15.1-2.8-22.7c-0.1-31.3-0.1-62.7-0.1-94v-0.4c0-43.2,0-86.5,0-129.7
	c0-10.6,0.1-21.2,0.5-31.8c0.1-3.5,0.3-7.1,0.5-10.6c0.3-5.2,1.2-10.2,2.7-14.9c0.4-1.2,0.8-2.3,1.3-3.5c2.7-6.4,7-12.1,13.2-16.8
	c9.6-7.1,20.9-9.6,32.5-9.7c22.6-0.3,45.2-0.1,67.8-0.1c54.1,0,108.2-0.1,162.4,0.1c17.3,0,34.7-0.2,51.9,1.2
	c22.7,1.8,38.7,19.4,39,41.4c0.4,29,0.9,57.9,0.9,86.9c0,29.2-0.2,58.4-0.3,87.6v0.4c-0.2,33.2-0.4,66.4-0.5,99.6c0,2.5,0,5,0,7.5
	c-0.1,24.5-18.1,43.7-42.5,43.9c-48.5,0.4-97,0.2-145.5,0.1c-6.9,0-11.2-3.3-12-10.2c-0.7-6.9,0-13.9-0.1-20.8
	c-0.3-24-0.6-48-1-71.9c-0.1-4.1-0.5-8.3-1.4-12.4c-1.9-9.4-7-14.8-16.5-15.5c-13.9-1-27.9-1.1-41.9-1c-6.1,0-9.7,3.6-10.2,9.7
	c-0.6,7.4-0.1,14.9-0.2,22.3c-0.3,31-0.5,61.9-0.9,92.9c-0.1,9.6-3.1,18.6-9.7,25.7c-15.7,16.9-35.3,23.2-58,18.6
	c-12.4-2.5-23.3-8.7-33.9-15.4c-2.2-1.4-4.5-3.4-6.6,0.1c0.1,0.4,0.2,0.8,0.4,1c5.1,5.5,10.3,10.9,15.3,16.5
	c24.9,28.2,55.4,42.8,93.5,37.3c28.5-4.1,49.9-18.7,62-45.4c2.3-5.1,5.5-8.9,10.5-10.7c5.1-1.8,10.5-3.6,15.9-3.6
	c47.6-0.6,95.3-0.5,142.9-1.3c15.4-0.3,29.3-5.8,40.3-17.3c12.2-12.7,16.4-28.6,16.4-45.4c0.1-34.8,0.2-69.6,0.2-104.3
	C458.1,202.3,458,146.7,457.9,91.1z M292.2,246.5c-5.3,4.1-11.1,7.4-17.3,11.4h-0.6c-0.2,0.1-0.4,0.2-0.6,0.4
	c3.8,5,7.4,9.8,11.2,14.4c18.4,22.4,34.6,46,45.9,72.9c4.9,11.5,10.7,22.6,16,33.9c2.3,4.9,6.1,8.4,11.5,8.4c14,0,27.9-0.3,41.9-1.3
	c8.5-0.6,13.9-6,15.5-14.6c0.8-4.1,1.2-8.3,1.2-12.4c0-33.9,0-67.8,0-101.7v-0.4c0-55.5,0-111,0-166.6c0-4-0.4-8-1.1-11.9
	c-1.2-6.6-4.9-11.5-11.8-12.6c-6.4-1-12.8-1.9-19.3-1.9c-79.3-0.1-158.7-0.1-238,0c-10.3,0-20.6,0.5-30.9,1
	C106,65.9,100,71.1,99.1,80c-0.7,6.8-0.7,13.6-1.2,20.4c-0.3,4.1,1.6,5,5.3,5c36,0.2,72,0.2,107.9,1.2c16.9,0.5,34,1.9,50.5,5.2
	c28.7,5.7,48.1,22.6,54.9,52c2.6,11.1,2.7,22.4,1.3,33.7C315.6,217.1,308.2,234.1,292.2,246.5z M170,217.5
	c0.4,9.3,3.3,13.7,11.9,14.4c11.7,0.9,23.6,1.1,35.3,0.1c11.5-1,19.4-8.1,21.4-19.8c1.2-7,1.8-14.3,1.2-21.3
	c-1.3-16.1-8.8-24.2-23.9-27c-2.4-0.5-5-0.8-7.4-0.8c-10.8,0-21.6,0.1-32.4,0.4c-3.8,0.1-6.2,2.5-6.2,6.5c-0.1,9.8,0,19.5,0,29.3
	h0.1v17.5C170,216.8,170,217.1,170,217.5z"/>
</svg>
